<?xml version="1.0" encoding="UTF-8" standalone="no"?>
<!DOCTYPE svg PUBLIC "-//W3C//DTD SVG 1.1//EN" "http://www.w3.org/Graphics/SVG/1.1/DTD/svg11.dtd">
<svg width="100%" height="100%" viewBox="0 0 800 800" version="1.1" xmlns="http://www.w3.org/2000/svg" xmlns:xlink="http://www.w3.org/1999/xlink" xml:space="preserve" xmlns:serif="http://www.serif.com/" style="fill-rule:evenodd;clip-rule:evenodd;stroke-linejoin:round;stroke-miterlimit:2;">
    <g transform="matrix(1,0,0,1,-3.04569,-24.3655)">
        <g id="SVGRepo_iconCarrier">
            <g id="页面-1">
                <g id="Design">
                    <g id="palette_line">
                        <path id="MingCute" d="M800,0L800,800L0,800L0,0L800,0ZM419.783,775.261L419.398,775.317L417.029,776.501L416.396,776.625L415.891,776.501L413.522,775.317C413.194,775.212 412.902,775.301 412.738,775.497L412.601,775.861L412.031,790.104L412.196,790.783L412.563,791.19L416.016,793.656L416.512,793.787L416.904,793.656L420.356,791.19L420.776,790.656L420.888,790.104L420.319,775.861C420.252,775.523 420.034,775.31 419.783,775.261ZM428.613,771.51L428.152,771.577L421.995,774.655L421.663,774.997L421.573,775.37L422.17,789.688L422.331,790.114L422.613,790.35L429.311,793.441C429.714,793.563 430.074,793.433 430.261,793.174L430.394,792.705L429.256,772.218C429.176,771.82 428.914,771.567 428.613,771.51ZM404.768,771.577C404.441,771.413 404.073,771.509 403.855,771.753L403.664,772.218L402.526,792.705C402.504,793.089 402.76,793.395 403.088,793.486L403.609,793.441L410.307,790.35L410.622,790.081L410.75,789.688L411.347,775.37L411.242,774.951L410.925,774.655L404.768,771.577Z" style="fill:none;fill-rule:nonzero;"/>
                        <path id="形状" d="M400,66.667C584.093,66.667 733.333,215.905 733.333,400C733.333,421.627 731.27,442.8 727.32,463.33C714.463,530.133 647.423,558.363 591.257,549.003L533.26,539.337C519.567,537.053 505.613,541.527 495.8,551.34C483.47,563.67 477.577,580.62 485.873,597.21C499.963,625.39 500.16,657.61 487.707,683.98C471.023,719.313 436.987,733.333 400,733.333C215.905,733.333 66.667,584.093 66.667,400C66.667,215.905 215.905,66.667 400,66.667ZM400,133.333C252.724,133.333 133.333,252.724 133.333,400C133.333,547.277 252.724,666.667 400,666.667L406.496,666.597C415.088,666.285 423.135,664.597 427.423,655.517C430.903,648.147 431.44,637.413 426.243,627.023C405.22,584.973 416.173,536.687 448.66,504.2C473.7,479.16 509.29,467.757 544.22,473.577L602.217,483.243C634.143,488.563 657.833,471.623 661.853,450.73C665.01,434.333 666.667,417.377 666.667,400C666.667,252.724 547.277,133.333 400,133.333ZM250,366.667C277.614,366.667 300,389.053 300,416.667C300,444.28 277.614,466.667 250,466.667C222.386,466.667 200,444.28 200,416.667C200,389.053 222.386,366.667 250,366.667ZM483.333,233.333C510.947,233.333 533.333,255.719 533.333,283.333C533.333,310.948 510.947,333.333 483.333,333.333C455.72,333.333 433.333,310.948 433.333,283.333C433.333,255.719 455.72,233.333 483.333,233.333ZM316.667,233.333C344.28,233.333 366.667,255.719 366.667,283.333C366.667,310.948 344.28,333.333 316.667,333.333C289.052,333.333 266.667,310.948 266.667,283.333C266.667,255.719 289.052,233.333 316.667,233.333Z" style="fill-rule:nonzero;stroke:black;stroke-width:1px;"/>
                    </g>
                </g>
            </g>
        </g>
    </g>
</svg>
